# xmcd
#
# Track frame offsets:
#	150
#	17937
#	35352
#	50827
#	63192
#	91530
#	118945
#	133395
#	151830
#	168267
#	180667
#	191912
#
# Disc length: 2790
#
# Revision: 2
# Processed by: cddbd v1.5.1PL0 Copyright (c) Steve Scherf et al.
# Submitted via: audiograbber 1.80.04
# Normalized: r1:DSETVAR1
#
DISCID=a20ae40c
DTITLE=Various Artist - Soul Divas
DYEAR=2000
DGENRE=Soul
TTITLE0=Patti LaBelle - Lady Marmalade
TTITLE1=Chaka Khan - I'm every woman
TTITLE2=Etta James - I found a love
TTITLE3=Aretha Franklin - (You make me feel like a) Natural woman
TTITLE4=Diana Ross - Ain't no mountain high enough
TTITLE5=Evelyn "Champagne" King - Love come down
TTITLE6=Gladys Knight - If I were your woman
TTITLE7=Nina Simone - Love me or leave me
TTITLE8=Thelma Houston - Don't leave me this way
TTITLE9=Marlena Shaw - Go away, little boy
TTITLE10=Patti Drew - Hard to Handle
TTITLE11=Ike and Tina Turner - I've been loving you too long
EXTD=
EXTT0=
EXTT1=
EXTT2=
EXTT3=
EXTT4=
EXTT5=
EXTT6=
EXTT7=
EXTT8=
EXTT9=
EXTT10=
EXTT11=
PLAYORDER=
